#!OML:ASF E:\Style4\Style4.ASF
:FULLY-SPECIFIED
:DEGREES
2436
root -0.236907 17.2301 -1.96406 6.34454 2.54083 6.01286
lowerback 17.0763 3.62979 -0.559556
upperback 9.45157 4.638 -3.42816
thorax 0.811827 2.41677 -4.03083
lowerneck -2.99085 -1.7608 -2.71849
upperneck 8.62216 -2.11312 -0.648439
head 3.31831 -1.14892 0.181678
rclavicle 1.33186e-014 -4.49253e-014
rhumerus 60.5681 15.5335 -49.4631
rradius 44.6391
rwrist 5.13711
rhand 37.9015 5.68914
rfingers 7.12502
rthumb 60.634 -7.4079
lclavicle 1.33186e-014 -4.49253e-014
lhumerus 39.2263 -5.45756 36.6969
lradius 72.6539
lwrist 13.4094
lhand 34.695 38.3185
lfingers 7.12502
lthumb 57.8711 54.155
rfemur -33.7185 -6.77116 13.8507
rtibia 49.8489
rfoot -19.7157 -17.0231
rtoes -16.1655
lfemur -30.6672 1.36852 -24.2701
ltibia 42.0949
lfoot -17.3086 5.71005
ltoes -14.9468
2437
root -0.237538 17.2323 -1.96437 6.35998 2.54517 6.07835
lowerback 17.0732 3.64598 -0.614428
upperback 9.44022 4.65102 -3.44105
thorax 0.79889 2.42133 -4.01598
lowerneck -2.99187 -1.74912 -2.76811
upperneck 8.58618 -2.09698 -0.624572
head 3.30698 -1.14134 0.198863
rclavicle 8.74653e-014 -7.15625e-014
rhumerus 60.5427 15.5013 -49.4691
rradius 44.5735
rwrist 5.143
rhand 38.2818 6.00205
rfingers 7.12502
rthumb 60.9562 -6.73369
lclavicle 8.74653e-014 -7.15625e-014
lhumerus 39.2623 -5.48816 36.7051
lradius 72.5972
lwrist 13.3884
lhand 34.6574 37.8823
lfingers 7.12502
lthumb 57.8383 53.7479
rfemur -33.7155 -6.77657 13.7745
rtibia 49.8138
rfoot -19.6975 -17.0175
rtoes -15.9422
lfemur -30.6441 1.33862 -24.3387
ltibia 42.0389
lfoot -17.2591 5.63658
ltoes -14.3123
2438
root -0.237906 17.2346 -1.96518 6.35094 2.52937 6.07727
lowerback 17.1131 3.6647 -0.610885
upperback 9.40992 4.67342 -3.43757
thorax 0.747192 2.43173 -4.02195
lowerneck -2.90659 -1.7658 -2.76302
upperneck 8.48576 -2.1219 -0.647119
head 3.25589 -1.1532 0.190981
rclavicle -1.98785e-015 -2.06736e-014
rhumerus 60.5157 15.4914 -49.4031
rradius 44.5344
rwrist 5.16333
rhand 38.4534 6.09233
rfingers 7.12502
rthumb 61.1012 -6.47751
lclavicle -1.98785e-015 -2.06736e-014
lhumerus 39.2578 -5.61702 36.6372
lradius 72.6434
lwrist 13.6378
lhand 34.4387 38.0396
lfingers 7.12502
lthumb 57.6472 54.0735
rfemur -33.6961 -6.77778 13.7774
rtibia 49.782
rfoot -19.6838 -16.9828
rtoes -16.102
lfemur -30.6085 1.31923 -24.3326
ltibia 41.9958
lfoot -17.205 5.61058
ltoes -13.9631
2439
root -0.237752 17.2363 -1.96578 6.33998 2.52968 6.03926
lowerback 17.1351 3.67364 -0.530598
upperback 9.38413 4.69484 -3.45118
thorax 0.717447 2.44555 -4.08737
lowerneck -2.75819 -1.78835 -2.69651
upperneck 8.31439 -2.16079 -0.677564
head 3.16758 -1.16954 0.170415
rclavicle 6.95746e-015 -1.98785e-015
rhumerus 60.4688 15.4488 -49.4707
rradius 44.4644
rwrist 5.20816
rhand 38.5104 6.2329
rfingers 7.12502
rthumb 61.1493 -6.28151
lclavicle 6.95746e-015 -1.98785e-015
lhumerus 39.2814 -5.73892 36.4995
lradius 72.7244
lwrist 13.8108
lhand 34.2414 38.235
lfingers 7.12502
lthumb 57.4744 54.4188
rfemur -33.6694 -6.81607 13.8284
rtibia 49.7621
rfoot -19.7003 -16.934
rtoes -16.3195
lfemur -30.5866 1.29936 -24.2926
ltibia 41.9651
lfoot -17.2059 5.7282
ltoes -14.444
2440
root -0.238934 17.2374 -1.96641 6.32661 2.54937 6.00887
lowerback 17.1429 3.67565 -0.49341
upperback 9.38169 4.70263 -3.44911
thorax 0.714209 2.45086 -4.10791
lowerneck -2.73662 -1.76637 -2.73352
upperneck 8.24477 -2.13619 -0.614932
head 3.14074 -1.15568 0.198568
rclavicle 8.17005e-014 -5.4467e-014
rhumerus 60.4889 15.4271 -49.3893
rradius 44.4564
rwrist 5.15352
rhand 38.489 6.14522
rfingers 7.12502
rthumb 61.1312 -6.39004
lclavicle 8.17005e-014 -5.4467e-014
lhumerus 39.2977 -5.73945 36.4611
lradius 72.7338
lwrist 13.5758
lhand 34.2865 38.3486
lfingers 7.12502
lthumb 57.5139 54.4983
rfemur -33.656 -6.85867 13.8679
rtibia 49.752
rfoot -19.7215 -16.8899
rtoes -16.1572
lfemur -30.5634 1.3033 -24.2536
ltibia 41.9438
lfoot -17.2235 5.70165
ltoes -14.3764
2441
root -0.239198 17.2391 -1.96646 6.32813 2.5554 5.97549
lowerback 17.1282 3.69215 -0.455902
upperback 9.37536 4.72996 -3.44246
thorax 0.71935 2.46582 -4.12526
lowerneck -2.80765 -1.76208 -2.79237
upperneck 8.32414 -2.12985 -0.537662
head 3.18346 -1.15248 0.232994
rclavicle -5.36719e-015 -2.78299e-015
rhumerus 60.4709 15.3869 -49.2925
rradius 44.4976
rwrist 5.11393
rhand 38.4721 6.04891
rfingers 7.12502
rthumb 61.117 -6.50278
lclavicle -5.36719e-015 -2.78299e-015
lhumerus 39.3849 -5.71062 36.4505
lradius 72.6452
lwrist 13.2646
lhand 34.6465 38.1587
lfingers 7.12502
lthumb 57.8288 54.0328
rfemur -33.6643 -6.8999 13.9094
rtibia 49.7414
rfoot -19.6797 -16.859
rtoes -16.0906
lfemur -30.5625 1.29247 -24.2132
ltibia 41.9359
lfoot -17.2053 5.71765
ltoes -14.2753
2442
root -0.239038 17.2391 -1.9658 6.32161 2.54054 5.99959
lowerback 17.0887 3.70581 -0.513372
upperback 9.37369 4.74088 -3.43092
thorax 0.732754 2.46871 -4.07961
lowerneck -2.77893 -1.75188 -2.76023
upperneck 8.31005 -2.11414 -0.599925
head 3.17157 -1.14573 0.208148
rclavicle 5.46658e-014 -5.48646e-014
rhumerus 60.4786 15.4142 -49.2554
rradius 44.5201
rwrist 5.09832
rhand 38.0703 5.66644
rfingers 7.12502
rthumb 60.7772 -7.27129
lclavicle 5.46658e-014 -5.48646e-014
lhumerus 39.3846 -5.67516 36.4702
lradius 72.5925
lwrist 13.1389
lhand 34.9606 37.6873
lfingers 7.12502
lthumb 58.1028 53.3161
rfemur -33.6619 -6.95529 13.886
rtibia 49.7487
rfoot -19.6265 -16.8464
rtoes -16.3314
lfemur -30.5462 1.28689 -24.24
ltibia 41.9384
lfoot -17.2054 5.74514
ltoes -14.2582
2443
root -0.239806 17.2386 -1.96544 6.31306 2.53409 5.96136
lowerback 17.0449 3.7199 -0.513486
upperback 9.38096 4.76127 -3.39515
thorax 0.761024 2.47806 -4.04119
lowerneck -2.75556 -1.74664 -2.68145
upperneck 8.28436 -2.10345 -0.715716
head 3.15534 -1.14181 0.15775
rclavicle 6.71892e-014 -4.29375e-014
rhumerus 60.5064 15.4102 -49.2175
rradius 44.5198
rwrist 5.08405
rhand 37.3612 5.08443
rfingers 7.12502
rthumb 60.1741 -8.51183
lclavicle 6.71892e-014 -4.29375e-014
lhumerus 39.3892 -5.7013 36.5064
lradius 72.6226
lwrist 13.2204
lhand 34.8302 37.6334
lfingers 7.12502
lthumb 57.9891 53.3646
rfemur -33.6543 -6.99187 13.9358
rtibia 49.7563
rfoot -19.7181 -16.7218
rtoes -15.8393
lfemur -30.5529 1.30634 -24.197
ltibia 41.9596
lfoot -17.1658 5.73703
ltoes -14.2547
2444
root -0.241219 17.2359 -1.96656 6.30431 2.50552 5.95803
lowerback 17.0294 3.74351 -0.527958
upperback 9.39401 4.79089 -3.39464
thorax 0.783935 2.49265 -4.03537
lowerneck -2.77996 -1.73105 -2.55974
upperneck 8.2731 -2.08138 -0.812844
head 3.15269 -1.13058 0.105923
rclavicle -3.4191e-014 9.14409e-015
rhumerus 60.5385 15.3605 -49.1633
rradius 44.5252
rwrist 4.95912
rhand 36.8276 4.70989
rfingers 7.12502
rthumb 59.7175 -9.36359
lclavicle -3.4191e-014 9.14409e-015
lhumerus 39.4236 -5.70256 36.4824
lradius 72.6901
lwrist 13.3801
lhand 34.6161 38.0528
lfingers 7.12502
lthumb 57.8022 53.9504
rfemur -33.6677 -6.96387 13.938
rtibia 49.7789
rfoot -19.872 -16.5311
rtoes -14.8206
lfemur -30.5682 1.34053 -24.1904
ltibia 41.9928
lfoot -17.1775 5.6905
ltoes -14.1511
2445
root -0.241306 17.2344 -1.96664 6.30752 2.48279 5.95836
lowerback 16.9991 3.7627 -0.505662
upperback 9.39753 4.82007 -3.41148
thorax 0.808951 2.50902 -4.06767
lowerneck -2.81113 -1.72941 -2.54966
upperneck 8.30882 -2.08032 -0.787561
head 3.17106 -1.12926 0.111912
rclavicle 1.39149e-015 -2.3059e-014
rhumerus 60.5509 15.2691 -49.265
rradius 44.4625
rwrist 4.91588
rhand 36.8778 4.68334
rfingers 7.12502
rthumb 59.7605 -9.34592
lclavicle 1.39149e-015 -2.3059e-014
lhumerus 39.4761 -5.74253 36.4161
lradius 72.7148
lwrist 13.61
lhand 34.275 38.4882
lfingers 7.12502
lthumb 57.5038 54.6466
rfemur -33.7011 -6.96698 13.9467
rtibia 49.7997
rfoot -19.7017 -16.6899
rtoes -15.9197
lfemur -30.595 1.34093 -24.1881
ltibia 42.0411
lfoot -17.2282 5.71144
ltoes -14.4588
2446
root -0.241474 17.2326 -1.96564 6.29647 2.45421 5.95294
lowerback 17.0059 3.77851 -0.500018
upperback 9.37918 4.84044 -3.41766
thorax 0.788235 2.51918 -4.08178
lowerneck -2.85201 -1.72775 -2.62414
upperneck 8.39081 -2.07816 -0.701643
head 3.20931 -1.12824 0.151885
rclavicle -1.64991e-014 -1.35174e-014
rhumerus 60.5074 15.2418 -49.3462
rradius 44.4815
rwrist 4.87286
rhand 37.1132 4.79134
rfingers 7.12502
rthumb 59.9621 -9.02867
lclavicle -1.64991e-014 -1.35174e-014
lhumerus 39.4721 -5.79206 36.3355
lradius 72.7333
lwrist 13.7918
lhand 34.0386 38.5955
lfingers 7.12502
lthumb 57.2966 54.9317
rfemur -33.7113 -6.94386 13.9507
rtibia 49.8221
rfoot -19.6643 -16.7698
rtoes -16.2774
lfemur -30.6114 1.36704 -24.1836
ltibia 42.0986
lfoot -17.2854 5.73463
ltoes -14.3989
